<svg xmlns="http://www.w3.org/2000/svg" version="1.1" viewBox="145 130 469 79"><style>
@keyframes fadeIn {
  0% { opacity: 0; transform: translateY(10px); }
  100% { opacity: 1; transform: translateY(0); }
}
.fadeIn {
  opacity: 0;
  animation: fadeIn 0.6s ease-in forwards;
}
</style>
<g class="fadeIn" style="animation-delay: 0.0s"><path d="M0 0 C1.29210136 0.00212242 1.29210136 0.00212242 2.61030579 0.00428772 C5.36133294 0.00988485 8.11227869 0.02243679 10.86328125 0.03515625 C12.72851445 0.04017162 14.59374892 0.04473446 16.45898438 0.04882812 C21.03128136 0.05985333 25.6035175 0.07711598 30.17578125 0.09765625 C30.17578125 3.72765625 30.17578125 7.35765625 30.17578125 11.09765625 C29.16153076 11.11747559 28.14728027 11.13729492 27.10229492 11.15771484 C23.33934701 11.23378648 19.57678502 11.32250116 15.81420898 11.41503906 C14.18570576 11.45332243 12.55711816 11.48817649 10.9284668 11.51953125 C8.58742111 11.56519627 6.24695595 11.62318702 3.90625 11.68359375 C2.81391304 11.70092056 2.81391304 11.70092056 1.69950867 11.71859741 C-1.99383249 11.82644137 -3.67248289 11.99649901 -6.82421875 14.09765625 C-6.47976994 16.5703239 -6.47976994 16.5703239 -5.82421875 19.09765625 C-3.06805443 20.47573841 -0.79636783 20.24274591 2.28515625 20.2734375 C3.51492187 20.29728516 4.7446875 20.32113281 6.01171875 20.34570312 C8.60530538 20.38841189 11.19910494 20.41980264 13.79296875 20.43945312 C25.50521599 20.70230627 25.50521599 20.70230627 30.17578125 25.09765625 C34.77968041 30.32370395 35.53906715 33.40511355 35.44921875 40.26953125 C35.02566633 44.65027342 33.93259304 46.63396964 31.17578125 50.09765625 C26.18322877 53.47728306 23.01086277 54.5955891 16.86352539 54.55175781 C16.16999969 54.55234192 15.476474 54.55292603 14.76193237 54.55352783 C12.49440528 54.55076525 10.22823177 54.51976378 7.9609375 54.48828125 C6.37911192 54.48081227 4.79727702 54.47512244 3.21543884 54.47113037 C-0.92922936 54.45592554 -5.0733286 54.41668924 -9.21777344 54.37231445 C-13.45434881 54.33124976 -17.69101695 54.31309556 -21.92773438 54.29296875 C-30.22682235 54.25018904 -38.52544958 54.1820014 -46.82421875 54.09765625 C-46.82421875 50.46765625 -46.82421875 46.83765625 -46.82421875 43.09765625 C-45.57180893 43.08552597 -45.57180893 43.08552597 -44.2940979 43.07315063 C-36.43616546 42.99529904 -28.57840656 42.90803732 -20.7206974 42.81012917 C-16.68069537 42.76012418 -12.64072001 42.71379477 -8.60058594 42.67578125 C-4.70364337 42.63898117 -0.80692184 42.59263612 3.08983231 42.53959274 C4.57858031 42.5210206 6.06737574 42.50592311 7.55619431 42.49431229 C9.63714111 42.47749756 11.71757858 42.44847568 13.79833984 42.41650391 C14.98414642 42.40318024 16.169953 42.38985657 17.39169312 42.37612915 C20.31510007 42.3804842 20.31510007 42.3804842 22.17578125 40.09765625 C22.34265573 37.51411407 22.34265573 37.51411407 22.17578125 35.09765625 C18.76074677 33.02796954 16.08394168 32.84636751 12.125 32.82421875 C10.95130859 32.80359375 9.77761719 32.78296875 8.56835938 32.76171875 C6.11009507 32.73580136 3.65173801 32.717498 1.19335938 32.70703125 C-5.63835037 32.57241628 -10.36271839 32.38447637 -15.82421875 28.09765625 C-18.75201007 24.60485257 -20.05362413 20.49871419 -20.26171875 15.97265625 C-19.50923767 9.3078238 -16.8237858 5.47227742 -11.82421875 1.09765625 C-7.87657605 -0.21822465 -4.11332519 -0.02534648 0 0 Z " fill="#FBFBFB" transform="translate(191.82421875,132.90234375)"/></g>
<g class="fadeIn" style="animation-delay: 0.2s"><path d="M0 0 C0.66 0 1.32 0 2 0 C4.88582343 5.86508326 7.76601893 11.73290666 10.64257812 17.60253906 C11.61886677 19.59306169 12.59637513 21.58298663 13.57519531 23.57226562 C14.9935634 26.45541057 16.40731933 29.34078026 17.8203125 32.2265625 C18.46288498 33.52903427 18.46288498 33.52903427 19.11843872 34.8578186 C22.68306021 42.15570647 25.78740447 49.50394376 29 57 C10.85 57 -7.3 57 -26 57 C-24.43944211 52.31832633 -22.69840614 48.00255765 -20.5859375 43.57421875 C-20.25260406 42.86836136 -19.91927063 42.16250397 -19.57583618 41.43525696 C-18.51207158 39.18448314 -17.44366228 36.93595188 -16.375 34.6875 C-15.68067346 33.22085274 -14.98666062 31.75405693 -14.29296875 30.28710938 C-12.906133 27.35523857 -11.51760225 24.42417949 -10.12792969 21.49365234 C-6.73603843 14.33660798 -3.36892882 7.16787354 0 0 Z " fill="#FCFBFB" transform="translate(315,130)"/></g>
<g class="fadeIn" style="animation-delay: 0.4s"><path d="M0 0 C0.77261673 0.00141495 1.54523346 0.0028299 2.34126282 0.00428772 C4.80697514 0.00988159 7.2725964 0.02243292 9.73828125 0.03515625 C11.41080598 0.04017204 13.08333213 0.04473481 14.75585938 0.04882812 C18.85420171 0.05984901 22.95247604 0.07710941 27.05078125 0.09765625 C27.05078125 3.72765625 27.05078125 7.35765625 27.05078125 11.09765625 C26.21417969 11.11223877 25.37757813 11.12682129 24.515625 11.1418457 C21.37674682 11.20332844 18.23848709 11.2775579 15.10009766 11.36010742 C13.08777814 11.4092527 11.07512393 11.44401913 9.0625 11.47851562 C2.10213685 11.67088747 -3.68307847 11.93793788 -9.94921875 15.09765625 C-13.5089925 18.93125875 -14.76457842 22.66517633 -15.1015625 27.7890625 C-14.83686496 31.80024835 -13.69380964 35.13755476 -10.94921875 38.09765625 C-3.65772062 43.08657602 4.02319626 42.76153926 12.55078125 42.84765625 C13.95967141 42.87585999 15.36852806 42.90579348 16.77734375 42.9375 C20.20188002 43.00786718 23.6257483 43.0607321 27.05078125 43.09765625 C27.05078125 46.72765625 27.05078125 50.35765625 27.05078125 54.09765625 C22.24944257 54.22239127 17.4490717 54.31252128 12.64648438 54.37231445 C11.01708522 54.39727067 9.38779583 54.43124879 7.75878906 54.47485352 C-2.67193715 54.7468203 -11.75032425 54.92610848 -19.83666992 47.32299805 C-25.78499826 40.94182553 -28.32354756 33.96194898 -28.16015625 25.26953125 C-27.43494359 17.80252686 -24.16069793 11.43709586 -18.94921875 6.09765625 C-12.75323082 1.36852153 -7.76970218 -0.05346185 0 0 Z " fill="#FBFBFB" transform="translate(464.94921875,132.90234375)"/></g>
<g class="fadeIn" style="animation-delay: 0.6s"><path d="M0 0 C18.48 0 36.96 0 56 0 C56 3.63 56 7.26 56 11 C48.74 11 41.48 11 34 11 C34 32.45 34 53.9 34 76 C30.04 76 26.08 76 22 76 C22 54.55 22 33.1 22 11 C14.74 11 7.48 11 0 11 C0 7.37 0 3.74 0 0 Z " fill="#FAFAFA" transform="translate(498,133)"/></g>
<g class="fadeIn" style="animation-delay: 0.8s"><path d="M0 0 C18.15 0 36.3 0 55 0 C55 3.63 55 7.26 55 11 C40.48 11 25.96 11 11 11 C11 32.45 11 53.9 11 76 C7.37 76 3.74 76 0 76 C0 50.92 0 25.84 0 0 Z " fill="#FEFEFE" transform="translate(559,133)"/></g>
<g class="fadeIn" style="animation-delay: 1.0s"><path d="M0 0 C5.05760634 -0.99493895 10.0774595 -1.8281366 15 0 C20.13828073 4.27326372 23.6439918 10.29184469 27 16 C29.4119413 13.79663012 31.12663878 11.79154555 32.83203125 8.984375 C34.98684376 5.46527292 36.90166967 2.74278422 40 0 C45.21411718 -1.03866876 49.7212725 -0.75112328 55 0 C52.12629458 4.70906421 49.29737429 8.90819401 45.16796875 12.6015625 C34.36376513 23.06076689 32.95263892 32.68091905 32.60083008 47.19677734 C32.50156681 56.80406291 32.6487362 66.39918038 33 76 C29.37 76 25.74 76 22 76 C22.05349609 74.68620361 22.10699219 73.37240723 22.16210938 72.01879883 C24.55574641 42.23614906 24.55574641 42.23614906 13.25 16.0625 C11.19699565 13.9090167 9.10765122 11.86173719 6.89648438 9.87158203 C3.96001121 6.97366709 1.97249581 3.5992656 0 0 Z " fill="#F9F9F9" transform="translate(329,133)"/></g>
<g class="fadeIn" style="animation-delay: 1.2s"><path d="M0 0 C3.96 0 7.92 0 12 0 C12 14.19 12 28.38 12 43 C26.19 43 40.38 43 55 43 C55 46.63 55 50.26 55 54 C36.85 54 18.7 54 0 54 C0 36.18 0 18.36 0 0 Z " fill="#FBFBFB" transform="translate(232,133)"/></g>
<g class="fadeIn" style="animation-delay: 1.4s"><path d="M0 0 C0.66 0 1.32 0 2 0 C3.77761591 3.4965944 5.54583581 6.99786116 7.3125 10.5 C7.81201172 11.48226562 8.31152344 12.46453125 8.82617188 13.4765625 C9.55610352 14.92675781 9.55610352 14.92675781 10.30078125 16.40625 C10.74591064 17.28603516 11.19104004 18.16582031 11.6496582 19.07226562 C13.29170056 22.63244859 14.62338089 26.32901571 16 30 C6.43 30 -3.14 30 -13 30 C-9.625 19.875 -9.625 19.875 -7.51953125 15.52734375 C-6.85727539 14.1496582 -6.85727539 14.1496582 -6.18164062 12.74414062 C-5.72982422 11.81794922 -5.27800781 10.89175781 -4.8125 9.9375 C-4.34908203 8.97650391 -3.88566406 8.01550781 -3.40820312 7.02539062 C-2.2769354 4.6812173 -1.14080989 2.33954029 0 0 Z " fill="#F1508D" transform="translate(315,157)"/></g>
<g class="fadeIn" style="animation-delay: 1.6s"><path d="M0 0 C10.23 0 20.46 0 31 0 C31 3.63 31 7.26 31 11 C20.77 11 10.54 11 0 11 C0 7.37 0 3.74 0 0 Z " fill="#FDFDFD" transform="translate(583,154)"/></g>
<g class="fadeIn" style="animation-delay: 1.8s"><path d="M0 0 C2.31 0 4.62 0 7 0 C5.515 2.475 5.515 2.475 4 5 C3.34 4.67 2.68 4.34 2 4 C2 3.34 2 2.68 2 2 C1.34 1.34 0.68 0.68 0 0 Z " fill="#F4F4F4" transform="translate(510,133)"/></g>
<g class="fadeIn" style="animation-delay: 2.0s"><path d="M0 0 C1.65 0 3.3 0 5 0 C3.625 2.5 3.625 2.5 2 5 C1.34 5 0.68 5 0 5 C0 3.35 0 1.7 0 0 Z " fill="#F5F5F5" transform="translate(232,133)"/></g>
</svg>